<?xml-stylesheet type="text/css" href="../style.css"?>
<svg id="Layer_1" data-name="Layer 1" xmlns="http://www.w3.org/2000/svg" viewBox="0 0 1921.64 1080">
  <defs>
    <style>
      .cls-1 {
        fill: #94e5e7;
      }

      .cls-2 {
        fill: #bae7ee;
      }

      .cls-3 {
        fill: #e7f7f4;
      }

      .cls-4 {
        fill: #b8e6eb;
      }

      .cls-5 {
        fill: #deedf3;
      }

      .cls-6 {
        fill: #daeff2;
      }

      .cls-7 {
        fill: #1ba2b1;
      }

      .cls-8 {
        fill: #a0cc6e;
      }

      .cls-9 {
        fill: #a5c351;
      }

      .cls-10 {
        fill: #67a246;
      }

      .cls-11 {
        fill: #90b63f;
      }

      .cls-12 {
        fill: #1ebec5;
      }

      .cls-13 {
        fill: #8b5e3c;
      }

      .cls-14 {
        fill: #39b54a;
      }

      .cls-15 {
        fill: #fff;
        opacity: 0.25;
      }
    </style>
  </defs>
  <g id="clouds">
    <rect id="sky" class="cls-1" x="0.69" y="0.05" width="1918.35" height="453.5"/>
    <polygon class="cls-2" points="1845.01 102.69 1336.78 20.59 855.91 114.42 1545.93 147.65 1845.01 102.69"/>
    <path class="cls-3" d="M10.23,331.81c-15.42-34.14-8.48-74.72,6.88-108.89,5.75-12.8,13.58-26,26.51-31.23,14.62-5.94,31.2,0,45.26,7.22a261.48,261.48,0,0,1,86.79,71.92c15.64,20.12,31.5,44.59,56.64,47.93,27.73,3.68,50.33-20.14,73-36.61,36-26.13,85.87-35.82,125.76-16.19,25.56,12.58,44.69,35.47,69.13,50.16,35.32,21.22,78.33,23.56,119.42,25.35l109.12,4.76c11.2.48,24.68-.2,30.36-9.94,5.17-8.86.76-20.24,2.7-30.32,3.8-19.68,28.1-26.1,47.85-28.51L903,266.1c23.67-2.89,48.13-5.71,71,1.07,28,8.3,49.77,29.72,72.75,47.78,101.41,79.7,235.66,99.13,363.19,115.83,6.6.87,13.49,1.7,19.77-.52,11.12-3.94,16.9-16,21.6-26.87,16.63-38.61,34.57-78,64.83-107s76-45.59,114.78-30c-5.66-14.36,6.56-30.83,21.31-35.06s30.45.28,44.9,5.45c25.15,9,52.28,22.93,60,48.66,2.3,7.63,2.86,16.2,8,22.3s13.72,8.22,21.66,9.62A415.45,415.45,0,0,0,1897,321.85c-4.41,24.33-8.78,49.72-1.88,73.46,5.42,18.69,17.61,35.34,19.81,54.68,3,26.18-13.64,51.54-35.49,66s-48.18,20.1-73.94,24.65C1675,563.75,1542,566.79,1409.55,567.48q-523.86,2.71-1046.4-44.2c-27.26-2.5-55.16-5.27-79.86-17.15C258,494,238,473.19,216.47,455c-32.66-27.66-70.8-52-111.13-66.51C69.16,375.44,28.18,371.59,10.23,331.81Z" transform="translate(0.12 -0.79)"/>
    <polygon class="cls-4" points="2.12 9.95 680.42 41.23 486.9 72.5 1008.81 207.38 4.07 174.15 2.12 9.95"/>
    <path class="cls-3" d="M168.16,33.52a10.93,10.93,0,0,0-18.9,2.66c-.71,1.86-.94,3.94-2.06,5.58-2.25,3.29-7.2,3.47-10.85,1.89s-6.6-4.45-10.07-6.42a23.11,23.11,0,0,0-23.9,1,7.6,7.6,0,0,0-2.88,3.1,8.53,8.53,0,0,0-.41,3.83c.5,9.16,7,23.09,16.18,24q65.56,6.19,131.51,6.9c5,.06,11.58-1.12,12.34-6.1,1.11-7.21-3.7-16.16-11-16.36a4.85,4.85,0,0,0-2.84.6c-1.33.86-1.81,2.66-3.17,3.48-1.75,1.06-4,0-5.73-1.09l-10-6.08c-6.37-3.87-18.8-12.37-25.83-9.88-2.23.79-4.16,2.26-6.33,3.21a15.15,15.15,0,0,1-18.29-5.65" transform="translate(0.12 -0.79)"/>
    <path class="cls-5" d="M975.22,109.54a1575.77,1575.77,0,0,1,249.51.4c26.66,2.16,54.16,4.92,79.64-3.22,16.35-5.22,32.1-15.92,38-32-1.31-1.3-6.25-5.19-7.55-6.49a17.9,17.9,0,0,0-18.57-4.39c-6.41,2.36-12.2,6.86-19,7.26-10.16-3.56-14.74-17.46-23.31-24-10.7-8.12-25.79-3.72-38.91-.84s-30.55,1.52-35-11.15a38.44,38.44,0,0,1-2.19,28.28,258.23,258.23,0,0,0-55.19-36c-11.78-5.69-27.91-9.65-36.34.36L1096,20c-1.32,13.11-18.78,21.37-29.75,14.08-3.58-2.38-6.38-6-10.33-7.63-14.44-6.12-27.3,16.52-42.86,14.64-7.87-1-13.73-8-21.43-9.91-5.45-1.33-11.14.09-16.55,1.5C954.15,38.15,929.7,47,924.61,68c-5.73,23.66,18.57,44.69,42.36,49.86C964.93,112.65,969.61,110,975.22,109.54Z" transform="translate(0.12 -0.79)"/>
    <path class="cls-6" d="M1738,74c-4.4-8.18-4.59-19.23,1.74-26s19.61-6.17,23.47,2.28c6.22-.9,5.63-12.27,11.76-13.64,3.81-.85,6.91,2.92,10.43,4.6s7.74,1.21,11.63.55a168.42,168.42,0,0,0,43.37-13.56c6.82-3.2,13.57-6.9,21-8s16,.86,20.22,7.07c-3.7-3.86,1.42-10.14,6.61-11.48a22.76,22.76,0,0,1,24,9.2c5.6,8.42,7.37,33.52-.71,41.39-8.78,8.54-25.3,2.64-36.83,2.51C1829.29,68.37,1783.38,72.32,1738,74Z" transform="translate(0.12 -0.79)"/>
  </g>
  <polygon id="mountain" class="cls-7" points="1919.51 444.91 1060.6 269.47 833.9 377.28 534.9 249.87 339.47 369.44 198.76 193.03 0.38 328.28 0.38 598.78 1918.53 596.82 1919.51 444.91"/>
  <path class="cls-8" d="M1919.88,799.65H-.12V511.8s21.44-64.62,183.23,0S569.06,601.87,627.53,598s315.78-131.2,469.77-111.62,284.59,68.54,456.12,62.66,177.38-58.74,233.91-47,132.55,9.79,132.55,9.79Z" transform="translate(0.12 -0.79)"/>
  <path class="cls-9" d="M1919,860H.26V670.36s116.88-95.78,249.33-31.28S539.83,729,648.92,707.5s245.43-101.65,358.41-54.73,360.37,177.88,469.45,138.78,198.69-179.83,303.87-142.69,138.3,21.5,138.3,21.5Z" transform="translate(0.12 -0.79)"/>
  <path class="cls-10" d="M1919,809.15l-250.34-23.46S1387,774,1279.39,809.15s-211.23,52.77-324.67,0-254.26,31.27-410.73,0-185.81-93.83-332.5,0-211.23,0-211.23,0v205.24H1919Z" transform="translate(0.12 -0.79)"/>
  <path class="cls-11" d="M1919.39,1079.9H.26V934s114.08-56,212.51,0S349,960,420.07,934s241.15,66.8,313.55,69.72c69.26,2.78,122.55-77,142.76-69.72,0,0,197.52-35.84,258.15-37.8s197.52-5.86,246.41,2,266,74.28,295.3,70.37,97.78,9.77,131,2S1919,939,1919,939Z" transform="translate(0.12 -0.79)"/>
  <path id="lake" class="cls-12" d="M176.33,800.45c-3.92-1.58-8-3.45-9-6.09-.58-1.5-.06-3.05.46-4.56l12.93-37.58c2-6,4.45-12.31,12.13-16.63,19.08-10.7,53.78-1.6,77.93-8.43,8.32-2.35,14.82-6.49,23.48-8.41,6.39-1.42,13.46-1.52,20.34-1.47a519.92,519.92,0,0,1,107.07,11.8c2.75.61,5.58,1.28,7.55,2.5,3.77,2.34,3.3,5.88,3.11,9-.67,10.89,5,21.87,16,30.88,3.75,3.08,8.19,6,9.88,9.64,2.26,4.8-.79,9.84-4.09,14.45-9.83,13.72-23.85,27.69-47.67,34.19-14.13,3.86-30.39,4.66-46.09,4.12A279.29,279.29,0,0,1,317,829c-26.61-5.16-47.79-8.77-75.43-10.66C219,816.82,194.43,807.74,176.33,800.45Z" transform="translate(0.12 -0.79)"/>
  <g id="trees">
    <rect class="cls-13" x="103.33" y="675.43" width="19.55" height="193.52"/>
    <circle class="cls-14" cx="112.13" cy="639.27" r="102.62"/>
    <rect class="cls-13" x="1848.71" y="534.51" width="8.51" height="84.24"/>
    <circle class="cls-14" cx="1852.54" cy="518.77" r="44.67"/>
    <rect class="cls-13" x="1477.84" y="534.76" width="4.14" height="40.98"/>
    <circle class="cls-14" cx="1479.7" cy="527.1" r="21.73"/>
    <rect class="cls-13" x="1319.41" y="713.58" width="8.19" height="81.09"/>
    <circle class="cls-14" cx="1323.09" cy="698.42" r="43"/>
    <rect class="cls-13" x="792.8" y="583" width="5.58" height="55.29"/>
    <circle class="cls-14" cx="795.31" cy="572.67" r="29.32"/>
    <rect class="cls-13" x="568.35" y="956.73" width="8.51" height="84.24"/>
    <circle class="cls-14" cx="572.18" cy="940.99" r="44.67"/>
    <rect class="cls-13" x="352.11" y="536.08" width="4.47" height="44.23"/>
    <circle class="cls-14" cx="354.12" cy="527.81" r="23.46"/>
    <rect class="cls-13" x="1662.05" y="870.52" width="15.64" height="154.82"/>
    <circle class="cls-14" cx="1669.08" cy="841.59" r="82.1"/>
    <rect class="cls-15" x="1.64" width="1920" height="1080"/>
  </g>
</svg>
