<?xml version="1.0" encoding="utf-8"?>
<?xml-stylesheet type="text/css" href="../style.css"?>
<svg id="button" xmlns="http://www.w3.org/2000/svg" viewBox="0 0 210.59 88.09">
  <rect id="base" class="cls-1_button" x="0.5" y="0.5" width="209.59" height="87.09" rx="12"/>
  <g id="mustache">
    <line class="cls-2_button" x1="34.17" y1="56.75" x2="9.62" y2="79.34"/>
    <line class="cls-2_button" x1="32.86" y1="29.6" x2="7.02" y2="7.02"/>
    <line class="cls-2_button" x1="33.08" y1="42.64" x2="5.93" y2="42.85"/>
    <line class="cls-2_button" x1="174.47" y1="56.75" x2="199.02" y2="79.34"/>
    <line class="cls-2_button" x1="175.78" y1="29.6" x2="201.62" y2="7.02"/>
    <line class="cls-2_button" x1="175.56" y1="42.64" x2="202.71" y2="42.85"/>
  </g>
  <g id="neutral">
    <g>
      <path d="M42.2,62.49V32.35h4.25L56.11,47.6a84,84,0,0,1,5.41,9.8l.09,0c-.36-4-.45-7.69-.45-12.39V32.35h3.67V62.49H60.9L51.33,47.2a95.23,95.23,0,0,1-5.64-10.06l-.13,0c.22,3.8.31,7.42.31,12.43V62.49Z" transform="translate(-3.77 -5.45)"/>
      <path d="M73.68,52.39c.09,5.32,3.49,7.51,7.43,7.51a14.12,14.12,0,0,0,6-1.12l.67,2.82a17.42,17.42,0,0,1-7.2,1.34c-6.66,0-10.64-4.38-10.64-10.91s3.84-11.67,10.15-11.67c7.07,0,8.94,6.21,8.94,10.19a14.17,14.17,0,0,1-.13,1.84Zm11.54-2.82c0-2.51-1-6.4-5.45-6.4-4,0-5.73,3.67-6,6.4Z" transform="translate(-3.77 -5.45)"/>
      <path d="M112,56.59c0,2.24,0,4.2.18,5.9H108.7L108.48,59h-.09a8.14,8.14,0,0,1-7.16,4c-3.4,0-7.47-1.88-7.47-9.49V40.85H97.7v12c0,4.12,1.25,6.89,4.83,6.89a5.69,5.69,0,0,0,5.19-3.58,5.8,5.8,0,0,0,.36-2V40.85H112Z" transform="translate(-3.77 -5.45)"/>
      <path d="M123.28,34.63v6.22h5.63v3h-5.63V55.52c0,2.68.76,4.2,3,4.2a8.47,8.47,0,0,0,2.28-.27l.18,2.95a9.48,9.48,0,0,1-3.49.54A5.47,5.47,0,0,1,121,61.29c-1.12-1.17-1.52-3.09-1.52-5.64V43.84h-3.35v-3h3.35V35.66Z" transform="translate(-3.77 -5.45)"/>
      <path d="M133.34,47.6c0-2.55-.05-4.74-.18-6.75h3.44l.14,4.25h.18a6.48,6.48,0,0,1,6-4.74,4.25,4.25,0,0,1,1.12.13V44.2a5.91,5.91,0,0,0-1.34-.13c-2.78,0-4.74,2.1-5.28,5a11,11,0,0,0-.18,1.84V62.49h-3.89Z" transform="translate(-3.77 -5.45)"/>
      <path d="M159.73,62.49l-.32-2.72h-.13A8.09,8.09,0,0,1,152.66,63c-4.38,0-6.62-3.09-6.62-6.22,0-5.23,4.65-8.1,13-8.05v-.45c0-1.79-.5-5-4.92-5a10.82,10.82,0,0,0-5.64,1.61l-.89-2.59a13.45,13.45,0,0,1,7.11-1.92c6.62,0,8.23,4.51,8.23,8.85v8.1a31.33,31.33,0,0,0,.35,5.18Zm-.59-11c-4.29-.09-9.16.67-9.16,4.87a3.48,3.48,0,0,0,3.71,3.76,5.39,5.39,0,0,0,5.23-3.62,4,4,0,0,0,.22-1.26Z" transform="translate(-3.77 -5.45)"/>
      <path d="M169.29,30.74h3.94V62.49h-3.94Z" transform="translate(-3.77 -5.45)"/>
    </g>
  </g>
  <g id="happy">
    <g>
      <path d="M53.09,32.35V45H67.67V32.35h3.94V62.49H67.67V48.36H53.09V62.49H49.2V32.35Z" transform="translate(-3.77 -5.45)"/>
      <path d="M90.21,62.49l-.31-2.72h-.14A8.07,8.07,0,0,1,83.14,63c-4.38,0-6.61-3.09-6.61-6.22,0-5.23,4.65-8.1,13-8.05v-.45c0-1.79-.49-5-4.92-5A10.87,10.87,0,0,0,79,44.87l-.89-2.59a13.45,13.45,0,0,1,7.11-1.92c6.62,0,8.23,4.51,8.23,8.85v8.1a30.22,30.22,0,0,0,.36,5.18Zm-.58-11c-4.29-.09-9.17.67-9.17,4.87a3.48,3.48,0,0,0,3.71,3.76,5.4,5.4,0,0,0,5.24-3.62,4.28,4.28,0,0,0,.22-1.26Z" transform="translate(-3.77 -5.45)"/>
      <path d="M99.78,47.91c0-2.77-.09-5-.18-7.06h3.53l.18,3.71h.09a8.5,8.5,0,0,1,7.69-4.2c5.24,0,9.17,4.42,9.17,11,0,7.78-4.74,11.63-9.84,11.63a7.61,7.61,0,0,1-6.66-3.4h-.09V71.35H99.78Zm3.89,5.77a8.8,8.8,0,0,0,.18,1.61,6.08,6.08,0,0,0,5.9,4.61c4.16,0,6.58-3.4,6.58-8.36,0-4.34-2.28-8-6.44-8a6.27,6.27,0,0,0-6,4.87,6.61,6.61,0,0,0-.27,1.61Z" transform="translate(-3.77 -5.45)"/>
      <path d="M125.22,47.91c0-2.77-.08-5-.17-7.06h3.53l.18,3.71h.09a8.5,8.5,0,0,1,7.69-4.2c5.23,0,9.17,4.42,9.17,11,0,7.78-4.74,11.63-9.84,11.63a7.59,7.59,0,0,1-6.66-3.4h-.09V71.35h-3.9Zm3.9,5.77a9.82,9.82,0,0,0,.17,1.61,6.08,6.08,0,0,0,5.91,4.61c4.16,0,6.57-3.4,6.57-8.36,0-4.34-2.28-8-6.44-8a6.28,6.28,0,0,0-6,4.87,6.61,6.61,0,0,0-.26,1.61Z" transform="translate(-3.77 -5.45)"/>
      <path d="M151.79,40.85l4.74,12.79c.49,1.43,1,3.13,1.39,4.43H158c.41-1.3.86-3,1.39-4.52l4.3-12.7h4.15l-5.9,15.43c-2.82,7.42-4.74,11.22-7.42,13.55a10.73,10.73,0,0,1-4.83,2.55l-1-3.31a10.63,10.63,0,0,0,3.45-1.92,12.18,12.18,0,0,0,3.31-4.39,3,3,0,0,0,.31-.94,3.5,3.5,0,0,0-.27-1l-8-19.94Z" transform="translate(-3.77 -5.45)"/>
    </g>
  </g>
  <g id="sad">
    <g>
      <path d="M77.67,57.75a13.69,13.69,0,0,0,7,2c4,0,6.31-2.1,6.31-5.14,0-2.82-1.61-4.43-5.68-6-4.92-1.74-8-4.29-8-8.54,0-4.69,3.89-8.18,9.75-8.18a13.71,13.71,0,0,1,6.66,1.47l-1.07,3.18a12,12,0,0,0-5.73-1.43c-4.11,0-5.68,2.46-5.68,4.52,0,2.81,1.84,4.2,6,5.81,5.09,2,7.69,4.43,7.69,8.85,0,4.66-3.45,8.68-10.56,8.68A15.63,15.63,0,0,1,76.68,61Z" transform="translate(-3.77 -5.45)"/>
      <path d="M112.23,62.49l-.31-2.72h-.13A8.1,8.1,0,0,1,105.17,63c-4.39,0-6.62-3.09-6.62-6.22,0-5.23,4.65-8.1,13-8.05v-.45c0-1.79-.49-5-4.92-5A10.81,10.81,0,0,0,101,44.87l-.9-2.59a13.49,13.49,0,0,1,7.12-1.92c6.61,0,8.22,4.51,8.22,8.85v8.1a30.22,30.22,0,0,0,.36,5.18Zm-.58-11c-4.29-.09-9.17.67-9.17,4.87a3.49,3.49,0,0,0,3.72,3.76,5.4,5.4,0,0,0,5.23-3.62,4.28,4.28,0,0,0,.22-1.26Z" transform="translate(-3.77 -5.45)"/>
      <path d="M140.5,30.74V56.9c0,1.93,0,4.12.18,5.59h-3.54L137,58.74h-.08A8,8,0,0,1,129.5,63c-5.24,0-9.26-4.43-9.26-11,0-7.2,4.43-11.62,9.7-11.62,3.31,0,5.55,1.56,6.53,3.31h.09V30.74Zm-3.94,18.92a6.75,6.75,0,0,0-.18-1.66,5.79,5.79,0,0,0-5.68-4.56c-4.07,0-6.48,3.58-6.48,8.36,0,4.39,2.15,8,6.39,8a5.91,5.91,0,0,0,5.77-4.7,6.49,6.49,0,0,0,.18-1.69Z" transform="translate(-3.77 -5.45)"/>
    </g>
  </g>
  <g id="laugh">
    <g>
      <path d="M54.2,32.35h3.89V59.23H71v3.26H54.2Z" transform="translate(-3.77 -5.45)"/>
      <path d="M87.16,62.49l-.31-2.72h-.14A8.07,8.07,0,0,1,80.09,63c-4.38,0-6.61-3.09-6.61-6.22,0-5.23,4.65-8.1,13-8.05v-.45c0-1.79-.49-5-4.92-5a10.81,10.81,0,0,0-5.63,1.61L75,42.28a13.45,13.45,0,0,1,7.11-1.92c6.62,0,8.23,4.51,8.23,8.85v8.1a30.22,30.22,0,0,0,.36,5.18Zm-.58-11c-4.29-.09-9.17.67-9.17,4.87a3.48,3.48,0,0,0,3.71,3.76,5.4,5.4,0,0,0,5.24-3.62,4.28,4.28,0,0,0,.22-1.26Z" transform="translate(-3.77 -5.45)"/>
      <path d="M114.84,56.59c0,2.24,0,4.2.18,5.9h-3.49L111.31,59h-.09a8.14,8.14,0,0,1-7.16,4c-3.39,0-7.46-1.88-7.46-9.49V40.85h3.93v12c0,4.12,1.25,6.89,4.83,6.89a5.69,5.69,0,0,0,5.19-3.58,5.8,5.8,0,0,0,.36-2V40.85h3.93Z" transform="translate(-3.77 -5.45)"/>
      <path d="M140,40.85c-.09,1.56-.18,3.31-.18,5.95V59.36c0,5-1,8-3.09,9.89s-5.14,2.59-7.87,2.59a14,14,0,0,1-7.2-1.79l1-3A12.23,12.23,0,0,0,129,68.75c4,0,7-2.1,7-7.55V58.78h-.09A7.74,7.74,0,0,1,129,62.4c-5.37,0-9.22-4.56-9.22-10.55,0-7.33,4.79-11.49,9.75-11.49a7.2,7.2,0,0,1,6.76,3.75h.09l.18-3.26ZM136,49.39a5.6,5.6,0,0,0-.22-1.79,5.68,5.68,0,0,0-5.5-4.16c-3.76,0-6.44,3.18-6.44,8.19,0,4.25,2.14,7.78,6.39,7.78a5.75,5.75,0,0,0,5.46-4,6.94,6.94,0,0,0,.31-2.1Z" transform="translate(-3.77 -5.45)"/>
      <path d="M146.37,30.74h3.93V44.25h.09a7.39,7.39,0,0,1,2.82-2.78,8.1,8.1,0,0,1,4-1.11c2.9,0,7.55,1.79,7.55,9.25V62.49h-3.93V50.06c0-3.49-1.3-6.44-5-6.44a5.66,5.66,0,0,0-5.28,3.94,4.79,4.79,0,0,0-.27,1.88V62.49h-3.93Z" transform="translate(-3.77 -5.45)"/>
    </g>
  </g>
  <g id="angry">
    <g>
      <path d="M62.08,53,59,62.49h-4L65.16,32.35h4.7L80.15,62.49H76L72.77,53ZM72,50,69,41.3c-.67-2-1.12-3.76-1.57-5.51h-.09c-.44,1.79-.94,3.63-1.52,5.46L62.88,50Z" transform="translate(-3.77 -5.45)"/>
      <path d="M84.3,46.71c0-2.24,0-4.07-.18-5.86h3.49l.23,3.58h.08a8,8,0,0,1,7.16-4.07c3,0,7.65,1.79,7.65,9.21V62.49H98.79V50c0-3.49-1.29-6.4-5-6.4a5.78,5.78,0,0,0-5.54,5.86v13H84.3Z" transform="translate(-3.77 -5.45)"/>
      <path d="M127.77,40.85c-.09,1.56-.18,3.31-.18,5.95V59.36c0,5-1,8-3.08,9.89s-5.15,2.59-7.87,2.59a14,14,0,0,1-7.2-1.79l1-3a12.26,12.26,0,0,0,6.35,1.69c4,0,7-2.1,7-7.55V58.78h-.09a7.74,7.74,0,0,1-6.89,3.62c-5.37,0-9.21-4.56-9.21-10.55,0-7.33,4.78-11.49,9.75-11.49a7.2,7.2,0,0,1,6.75,3.75h.09l.18-3.26Zm-4.07,8.54a5.6,5.6,0,0,0-.22-1.79,5.68,5.68,0,0,0-5.5-4.16c-3.76,0-6.44,3.18-6.44,8.19,0,4.25,2.14,7.78,6.39,7.78a5.75,5.75,0,0,0,5.46-4,6.94,6.94,0,0,0,.31-2.1Z" transform="translate(-3.77 -5.45)"/>
      <path d="M133.85,47.6c0-2.55,0-4.74-.18-6.75h3.45l.13,4.25h.18a6.48,6.48,0,0,1,6-4.74,4.25,4.25,0,0,1,1.12.13V44.2a5.85,5.85,0,0,0-1.34-.13c-2.77,0-4.74,2.1-5.28,5a11,11,0,0,0-.18,1.84V62.49h-3.89Z" transform="translate(-3.77 -5.45)"/>
      <path d="M151,40.85l4.74,12.79c.5,1.43,1,3.13,1.39,4.43h.09c.4-1.3.85-3,1.39-4.52l4.29-12.7h4.16l-5.9,15.43c-2.82,7.42-4.74,11.22-7.43,13.55a10.63,10.63,0,0,1-4.83,2.55l-1-3.31a10.59,10.59,0,0,0,3.44-1.92,12,12,0,0,0,3.31-4.39,2.72,2.72,0,0,0,.31-.94,3.39,3.39,0,0,0-.26-1l-8-19.94Z" transform="translate(-3.77 -5.45)"/>
    </g>
  </g>
</svg>
