<?xml version="1.0" encoding="utf-8"?>
<?xml-stylesheet type="text/css" href="../style.css"?>
<svg id="button" xmlns="http://www.w3.org/2000/svg" viewBox="0 0 210.59 88.09">
  <defs>
    <style>
      .cls-1 {
        fill: #fff;
        stroke: none;
        stroke-miterlimit: 10;
      }
    </style>
  </defs>
  <rect id="baseOne" class="cls-1" x="0.5" y="0.5" width="209.59" height="87.09" rx="12"/>
  <g id="coffee">
    <path d="M71,62.15a19.69,19.69,0,0,1-8.16,1.47c-8.71,0-15.26-5.5-15.26-15.63,0-9.67,6.55-16.22,16.13-16.22a16.55,16.55,0,0,1,7.33,1.37l-1,3.26a14.42,14.42,0,0,0-6.23-1.29c-7.24,0-12.06,4.63-12.06,12.74,0,7.57,4.36,12.43,11.87,12.43A15.93,15.93,0,0,0,70.19,59Z" transform="translate(-3.77 -5.45)"/>
    <path d="M95.44,51.89c0,8.2-5.68,11.78-11,11.78-6,0-10.64-4.4-10.64-11.42,0-7.42,4.86-11.77,11-11.77C91.13,40.48,95.44,45.1,95.44,51.89Zm-17.6.23c0,4.86,2.8,8.52,6.74,8.52S91.32,57,91.32,52c0-3.76-1.88-8.53-6.65-8.53S77.84,47.9,77.84,52.12Z" transform="translate(-3.77 -5.45)"/>
    <path d="M114.23,63.16V44.05h-9.3V63.16h-4V44.05H97.82V41h3.12v-.73c0-3.12.73-5.82,2.47-7.57a7.62,7.62,0,0,1,5.6-2.06,7.06,7.06,0,0,1,3.16.78l-.83,3a5.92,5.92,0,0,0-2.38-.55c-3.16,0-4,2.7-4,6.19v1h9.3v-1c0-3.12.73-6,2.61-7.75a7.66,7.66,0,0,1,5.36-2.06,9.18,9.18,0,0,1,3.44.64l-.5,3.12a6.17,6.17,0,0,0-2.62-.51c-3.39,0-4.3,3-4.3,6.42V41h5.36v3.07h-5.32V63.16Z" transform="translate(-3.77 -5.45)"/>
    <path d="M128.89,52.8c.1,5.46,3.58,7.7,7.61,7.7a14.6,14.6,0,0,0,6.14-1.14l.69,2.89A18,18,0,0,1,136,63.62c-6.83,0-10.91-4.49-10.91-11.18s4-12,10.41-12c7.24,0,9.16,6.37,9.16,10.45a16.7,16.7,0,0,1-.13,1.87Zm11.83-2.88c0-2.57-1.06-6.56-5.59-6.56-4.08,0-5.87,3.76-6.19,6.56Z" transform="translate(-3.77 -5.45)"/>
    <path d="M151.85,52.8c.09,5.46,3.58,7.7,7.61,7.7a14.6,14.6,0,0,0,6.14-1.14l.69,2.89a18,18,0,0,1-7.38,1.37c-6.83,0-10.91-4.49-10.91-11.18s3.94-12,10.41-12c7.24,0,9.16,6.37,9.16,10.45a14.2,14.2,0,0,1-.14,1.87Zm11.83-2.88c0-2.57-1.06-6.56-5.59-6.56-4.08,0-5.87,3.76-6.19,6.56Z" transform="translate(-3.77 -5.45)"/>
  </g>
  <g id="warmMilk">
    <path d="M95.62,49.42c-.23-4.21-.49-9.26-.45-13H95c-1,3.53-2.29,7.29-3.81,11.45L85.91,62.48H83L78.08,48.12C76.65,43.87,75.44,40,74.59,36.4H74.5c-.09,3.76-.31,8.81-.58,13.33l-.81,12.93H69.4l2.1-30.15h5l5.14,14.58c1.26,3.71,2.29,7,3,10.16h.13c.76-3,1.84-6.36,3.18-10.16l5.37-14.58h5l1.88,30.15h-3.8Z" transform="translate(-3.77 -5.45)"/>
    <path d="M111,34.92a2.44,2.44,0,0,1-4.87,0,2.4,2.4,0,0,1,2.46-2.46A2.33,2.33,0,0,1,111,34.92Zm-4.38,27.74V41h3.94V62.66Z" transform="translate(-3.77 -5.45)"/>
    <path d="M117.05,30.9H121V62.66h-3.94Z" transform="translate(-3.77 -5.45)"/>
    <path d="M131.5,50.94h.09c.54-.76,1.3-1.7,1.92-2.46L139.87,41h4.74l-8.37,8.9,9.53,12.75H141l-7.48-10.38-2,2.24v8.14h-3.89V30.9h3.89Z" transform="translate(-3.77 -5.45)"/>
  </g>
</svg>
