<?xml version="1.0" encoding="utf-8"?>
<?xml-stylesheet type="text/css" href="../style.css"?>
<svg id="buttonThree" xmlns="http://www.w3.org/2000/svg" viewBox="0 0 320.94 88.09">
  <defs>
    <style>
      .cls-1 {
        fill: #fff;
        stroke: none;
        stroke-miterlimit: 10;
      }
    </style>
  </defs>
  <rect id="baseThree" class="cls-1" x="0.5" y="0.5" width="319.94" height="87.09" rx="14.83"/>
  <g id="feed">
    <path d="M61.68,34.41H76.61v3H65.26v9.21H75.75v3H65.26V62.13H61.68Z" transform="translate(-3.49 -5.43)"/>
    <path d="M82.33,52.83c.08,4.9,3.21,6.91,6.83,6.91a13.21,13.21,0,0,0,5.51-1l.62,2.59a16.29,16.29,0,0,1-6.63,1.23c-6.12,0-9.78-4-9.78-10s3.53-10.74,9.33-10.74c6.5,0,8.23,5.72,8.23,9.38a13.48,13.48,0,0,1-.13,1.68Zm10.61-2.59c0-2.3-.94-5.88-5-5.88-3.66,0-5.26,3.37-5.55,5.88Z" transform="translate(-3.49 -5.43)"/>
    <path d="M102.94,52.83c.08,4.9,3.21,6.91,6.82,6.91a13.22,13.22,0,0,0,5.52-1l.61,2.59a16.19,16.19,0,0,1-6.62,1.23c-6.13,0-9.79-4-9.79-10s3.54-10.74,9.34-10.74c6.5,0,8.22,5.72,8.22,9.38a13.9,13.9,0,0,1-.12,1.68Zm10.61-2.59c0-2.3-1-5.88-5-5.88-3.66,0-5.26,3.37-5.55,5.88Z" transform="translate(-3.49 -5.43)"/>
    <path d="M138.72,32.93V57c0,1.77,0,3.78.16,5.14h-3.24l-.17-3.46h-.08a7.37,7.37,0,0,1-6.79,3.91c-4.81,0-8.51-4.07-8.51-10.12,0-6.62,4.07-10.69,8.92-10.69a6.67,6.67,0,0,1,6,3h.08V32.93Zm-3.62,17.4a6.63,6.63,0,0,0-.16-1.53,5.33,5.33,0,0,0-5.23-4.19c-3.74,0-6,3.29-6,7.69,0,4,2,7.36,5.88,7.36a5.44,5.44,0,0,0,5.31-4.32,6.39,6.39,0,0,0,.16-1.56Z" transform="translate(-3.49 -5.43)"/>
    <path d="M157.81,36.51v5.71H163V45h-5.18V55.71c0,2.47.7,3.87,2.71,3.87a7.73,7.73,0,0,0,2.1-.25l.16,2.72a9,9,0,0,1-3.2.49A5,5,0,0,1,155.67,61c-1-1.07-1.4-2.84-1.4-5.18V45h-3.08V42.22h3.08V37.45Z" transform="translate(-3.49 -5.43)"/>
    <path d="M167.06,32.93h3.62V45.35h.08a6.75,6.75,0,0,1,2.59-2.55,7.44,7.44,0,0,1,3.71-1c2.67,0,6.95,1.65,6.95,8.51V62.13h-3.62V50.7c0-3.21-1.2-5.93-4.61-5.93a5.21,5.21,0,0,0-4.85,3.62,4.33,4.33,0,0,0-.25,1.73v12h-3.62Z" transform="translate(-3.49 -5.43)"/>
    <path d="M191.91,52.83c.08,4.9,3.2,6.91,6.82,6.91a13.17,13.17,0,0,0,5.51-1l.62,2.59a16.19,16.19,0,0,1-6.62,1.23c-6.13,0-9.79-4-9.79-10s3.54-10.74,9.34-10.74c6.49,0,8.22,5.72,8.22,9.38a13.9,13.9,0,0,1-.12,1.68Zm10.61-2.59c0-2.3-1-5.88-5-5.88-3.66,0-5.27,3.37-5.55,5.88Z" transform="translate(-3.49 -5.43)"/>
    <path d="M219.34,34.74a41.19,41.19,0,0,1,6.87-.54c3.54,0,6.13.83,7.77,2.31a7.45,7.45,0,0,1,2.43,5.8,8.16,8.16,0,0,1-2.14,5.92c-1.89,2-5,3-8.47,3a12.07,12.07,0,0,1-2.88-.25V62.13h-3.58Zm3.58,13.36a11.78,11.78,0,0,0,3,.29c4.32,0,7-2.1,7-5.92,0-3.66-2.59-5.43-6.54-5.43a15.27,15.27,0,0,0-3.37.29Z" transform="translate(-3.49 -5.43)"/>
    <path d="M242.09,52.83c.08,4.9,3.2,6.91,6.82,6.91a13.17,13.17,0,0,0,5.51-1l.62,2.59a16.19,16.19,0,0,1-6.62,1.23c-6.13,0-9.79-4-9.79-10s3.54-10.74,9.34-10.74c6.5,0,8.22,5.72,8.22,9.38a13.9,13.9,0,0,1-.12,1.68Zm10.61-2.59c0-2.3-.95-5.88-5-5.88-3.66,0-5.26,3.37-5.55,5.88Z" transform="translate(-3.49 -5.43)"/>
    <path d="M265,36.51v5.71h5.18V45H265V55.71c0,2.47.7,3.87,2.71,3.87a7.73,7.73,0,0,0,2.1-.25l.16,2.72a9,9,0,0,1-3.2.49A5,5,0,0,1,262.9,61c-1-1.07-1.4-2.84-1.4-5.18V45h-3.08V42.22h3.08V37.45Z" transform="translate(-3.49 -5.43)"/>
  </g>
  <g id="compliment">
    <path d="M81.18,61.53a17.68,17.68,0,0,1-7.31,1.31c-7.81,0-13.68-4.92-13.68-14,0-8.67,5.87-14.55,14.46-14.55a14.87,14.87,0,0,1,6.57,1.23l-.86,2.92a13,13,0,0,0-5.59-1.15c-6.49,0-10.8,4.15-10.8,11.42,0,6.78,3.9,11.14,10.64,11.14a14.43,14.43,0,0,0,5.83-1.15Z" transform="translate(-3.49 -5.43)"/>
    <path d="M103.08,52.33c0,7.35-5.09,10.56-9.9,10.56-5.38,0-9.53-4-9.53-10.23C83.65,46,88,42.1,93.51,42.1,99.22,42.1,103.08,46.25,103.08,52.33Zm-15.78.2c0,4.36,2.51,7.64,6,7.64s6-3.24,6-7.72c0-3.37-1.68-7.64-5.95-7.64S87.3,48.75,87.3,52.53Z" transform="translate(-3.49 -5.43)"/>
    <path d="M107.64,47.93c0-2,0-3.74-.16-5.38h3.16l.17,3.2h.12a6.85,6.85,0,0,1,6.24-3.65,5.87,5.87,0,0,1,5.63,4h.08a8.31,8.31,0,0,1,2.22-2.59,6.81,6.81,0,0,1,4.4-1.39c2.63,0,6.53,1.72,6.53,8.63v11.7H132.5V51.18c0-3.82-1.4-6.12-4.32-6.12a4.69,4.69,0,0,0-4.27,3.28,6.13,6.13,0,0,0-.29,1.81V62.43h-3.53V50.52c0-3.16-1.4-5.46-4.15-5.46a4.94,4.94,0,0,0-4.48,3.61,5.14,5.14,0,0,0-.29,1.77v12h-3.53Z" transform="translate(-3.49 -5.43)"/>
    <path d="M141.91,49c0-2.55-.09-4.6-.17-6.49H145l.16,3.41h.08a7.84,7.84,0,0,1,7.07-3.86c4.81,0,8.42,4.07,8.42,10.1,0,7.15-4.35,10.69-9,10.69a7,7,0,0,1-6.12-3.13h-.08V70.57h-3.57Zm3.57,5.3a7.52,7.52,0,0,0,.17,1.48,5.56,5.56,0,0,0,5.42,4.23c3.82,0,6-3.12,6-7.68,0-4-2.1-7.4-5.92-7.4a5.77,5.77,0,0,0-5.46,4.48,5.59,5.59,0,0,0-.25,1.48Z" transform="translate(-3.49 -5.43)"/>
    <path d="M165.28,33.26h3.62V62.43h-3.62Z" transform="translate(-3.49 -5.43)"/>
    <path d="M179,37a2.24,2.24,0,0,1-4.48,0,2.2,2.2,0,0,1,2.26-2.26A2.15,2.15,0,0,1,179,37Zm-4,25.47V42.55h3.61V62.43Z" transform="translate(-3.49 -5.43)"/>
    <path d="M184.59,47.93c0-2,0-3.74-.16-5.38h3.16l.17,3.2h.12a6.85,6.85,0,0,1,6.25-3.65,5.86,5.86,0,0,1,5.62,4h.09a8.16,8.16,0,0,1,2.21-2.59,6.83,6.83,0,0,1,4.4-1.39c2.63,0,6.53,1.72,6.53,8.63v11.7h-3.53V51.18c0-3.82-1.4-6.12-4.31-6.12a4.69,4.69,0,0,0-4.28,3.28,6.14,6.14,0,0,0-.28,1.81V62.43H197V50.52c0-3.16-1.39-5.46-4.15-5.46a4.94,4.94,0,0,0-4.48,3.61,5.13,5.13,0,0,0-.28,1.77v12h-3.54Z" transform="translate(-3.49 -5.43)"/>
    <path d="M220.87,53.15c.08,4.89,3.21,6.9,6.82,6.9a13,13,0,0,0,5.51-1l.61,2.59a16,16,0,0,1-6.61,1.23c-6.12,0-9.78-4-9.78-10S221,42.1,226.75,42.1c6.49,0,8.21,5.71,8.21,9.36a14.11,14.11,0,0,1-.12,1.69Zm10.6-2.59c0-2.3-.94-5.87-5-5.87-3.66,0-5.26,3.36-5.55,5.87Z" transform="translate(-3.49 -5.43)"/>
    <path d="M239.44,47.93c0-2,0-3.74-.16-5.38h3.2l.21,3.29h.08a7.32,7.32,0,0,1,6.57-3.74c2.75,0,7,1.64,7,8.46V62.43h-3.62V51c0-3.2-1.19-5.87-4.6-5.87a5.14,5.14,0,0,0-4.85,3.69,5.38,5.38,0,0,0-.24,1.69v12h-3.62Z" transform="translate(-3.49 -5.43)"/>
    <path d="M266.43,36.84v5.71h5.18V45.3h-5.18V56c0,2.46.7,3.86,2.72,3.86a8.13,8.13,0,0,0,2.09-.25l.17,2.71a8.84,8.84,0,0,1-3.21.49,5,5,0,0,1-3.9-1.52c-1-1.06-1.4-2.83-1.4-5.17V45.3h-3.08V42.55h3.08V37.78Z" transform="translate(-3.49 -5.43)"/>
  </g>
  <g id="start">
    <path d="M63.22,57.61a12.48,12.48,0,0,0,6.31,1.78c3.6,0,5.7-1.9,5.7-4.64,0-2.55-1.46-4-5.14-5.42-4.44-1.58-7.19-3.88-7.19-7.72,0-4.24,3.52-7.4,8.81-7.4a12.31,12.31,0,0,1,6,1.34l-1,2.87a10.75,10.75,0,0,0-5.17-1.3c-3.72,0-5.13,2.23-5.13,4.09,0,2.54,1.65,3.79,5.41,5.25,4.61,1.78,6.95,4,6.95,8,0,4.21-3.11,7.84-9.53,7.84a14,14,0,0,1-7-1.74Z" transform="translate(-3.49 -5.43)"/>
    <path d="M87.67,36.72v5.62h5.1v2.71h-5.1V55.59c0,2.43.69,3.8,2.67,3.8a8,8,0,0,0,2.06-.24l.17,2.67a8.82,8.82,0,0,1-3.16.48,4.94,4.94,0,0,1-3.84-1.49c-1-1.05-1.37-2.79-1.37-5.1V45.05h-3V42.34h3V37.65Z" transform="translate(-3.49 -5.43)"/>
    <path d="M107.6,61.9l-.28-2.47h-.13a7.27,7.27,0,0,1-6,2.91,5.57,5.57,0,0,1-6-5.61c0-4.73,4.21-7.32,11.76-7.28v-.4c0-1.62-.44-4.53-4.44-4.53A9.87,9.87,0,0,0,97.45,46l-.8-2.34a12.12,12.12,0,0,1,6.42-1.74c6,0,7.44,4.08,7.44,8v7.32a27.87,27.87,0,0,0,.32,4.69Zm-.53-10c-3.88-.08-8.28.6-8.28,4.4a3.15,3.15,0,0,0,3.35,3.4,4.86,4.86,0,0,0,4.73-3.28,3.74,3.74,0,0,0,.2-1.13Z" transform="translate(-3.49 -5.43)"/>
    <path d="M116.25,48.44c0-2.3,0-4.28-.16-6.1h3.11l.12,3.84h.16a5.87,5.87,0,0,1,5.42-4.29,3.94,3.94,0,0,1,1,.12v3.36a5.47,5.47,0,0,0-1.22-.12c-2.5,0-4.28,1.9-4.77,4.56a10.28,10.28,0,0,0-.16,1.66V61.9h-3.51Z" transform="translate(-3.49 -5.43)"/>
    <path d="M134.72,36.72v5.62h5.09v2.71h-5.09V55.59c0,2.43.68,3.8,2.66,3.8a8,8,0,0,0,2.06-.24l.17,2.67a8.82,8.82,0,0,1-3.16.48,4.94,4.94,0,0,1-3.84-1.49c-1-1.05-1.37-2.79-1.37-5.1V45.05h-3V42.34h3V37.65Z" transform="translate(-3.49 -5.43)"/>
    <path d="M156,37.65h-8.28v-3H167.9v3h-8.33V61.9H156Z" transform="translate(-3.49 -5.43)"/>
    <path d="M179.05,61.9l-.28-2.47h-.12a7.3,7.3,0,0,1-6,2.91,5.57,5.57,0,0,1-6-5.61c0-4.73,4.21-7.32,11.76-7.28v-.4c0-1.62-.44-4.53-4.44-4.53A9.8,9.8,0,0,0,168.91,46l-.81-2.34a12.12,12.12,0,0,1,6.42-1.74c6,0,7.44,4.08,7.44,8v7.32a27.87,27.87,0,0,0,.32,4.69Zm-.53-10c-3.88-.08-8.28.6-8.28,4.4a3.15,3.15,0,0,0,3.35,3.4,4.86,4.86,0,0,0,4.73-3.28,3.74,3.74,0,0,0,.2-1.13Z" transform="translate(-3.49 -5.43)"/>
    <path d="M187.7,33.2h3.55V61.9H187.7Z" transform="translate(-3.49 -5.43)"/>
    <path d="M200.75,51.31h.08c.49-.69,1.17-1.54,1.74-2.22l5.74-6.75h4.28l-7.55,8,8.6,11.52h-4.32l-6.75-9.38-1.82,2V61.9h-3.51V33.2h3.51Z" transform="translate(-3.49 -5.43)"/>
    <path d="M220.84,36.84a2.21,2.21,0,0,1-4.41,0,2.17,2.17,0,0,1,2.22-2.22A2.11,2.11,0,0,1,220.84,36.84Zm-4,25.06V42.34h3.55V61.9Z" transform="translate(-3.49 -5.43)"/>
    <path d="M226.33,47.63c0-2,0-3.68-.16-5.29h3.15l.21,3.23h.08a7.19,7.19,0,0,1,6.46-3.68c2.71,0,6.91,1.62,6.91,8.33V61.9h-3.55V50.62c0-3.15-1.18-5.78-4.53-5.78a5.06,5.06,0,0,0-4.77,3.64,5.19,5.19,0,0,0-.24,1.66V61.9h-3.56Z" transform="translate(-3.49 -5.43)"/>
    <path d="M265.61,42.34c-.08,1.41-.16,3-.16,5.37V59.07c0,4.49-.89,7.23-2.79,8.93a10.34,10.34,0,0,1-7.11,2.35,12.6,12.6,0,0,1-6.5-1.62l.88-2.71a11,11,0,0,0,5.74,1.54c3.64,0,6.31-1.9,6.31-6.83V58.54h-.08a7,7,0,0,1-6.23,3.28c-4.85,0-8.32-4.12-8.32-9.54,0-6.63,4.32-10.39,8.81-10.39a6.51,6.51,0,0,1,6.1,3.4h.08l.16-2.95Zm-3.67,7.72a5.2,5.2,0,0,0-5.18-5.38c-3.39,0-5.81,2.87-5.81,7.4,0,3.84,1.93,7,5.77,7a5.18,5.18,0,0,0,4.93-3.64,5.93,5.93,0,0,0,.29-1.9Z" transform="translate(-3.49 -5.43)"/>
  </g>
  <g id="stop">
    <path d="M64,58a12.66,12.66,0,0,0,6.39,1.8c3.64,0,5.77-1.92,5.77-4.71,0-2.58-1.47-4.05-5.2-5.48-4.51-1.6-7.29-3.94-7.29-7.83,0-4.3,3.56-7.49,8.93-7.49a12.63,12.63,0,0,1,6.1,1.35l-1,2.91a11,11,0,0,0-5.25-1.31c-3.76,0-5.2,2.25-5.2,4.13,0,2.58,1.68,3.85,5.49,5.33,4.67,1.8,7,4,7,8.11,0,4.26-3.16,7.94-9.67,7.94a14.27,14.27,0,0,1-7-1.76Z" transform="translate(-3.49 -5.43)"/>
    <path d="M88.79,36.83v5.69H94v2.74H88.79V56c0,2.46.7,3.85,2.7,3.85a8.16,8.16,0,0,0,2.09-.24l.17,2.7a8.81,8.81,0,0,1-3.2.49,5,5,0,0,1-3.89-1.51c-1-1.07-1.39-2.83-1.39-5.16V45.26H82.2V42.52h3.07V37.77Z" transform="translate(-3.49 -5.43)"/>
    <path d="M115.69,52.27c0,7.33-5.07,10.52-9.87,10.52-5.36,0-9.5-3.93-9.5-10.19,0-6.64,4.34-10.53,9.83-10.53C111.84,42.07,115.69,46.21,115.69,52.27Zm-15.72.2c0,4.34,2.5,7.62,6,7.62s6-3.24,6-7.7c0-3.36-1.68-7.62-5.94-7.62S100,48.7,100,52.47Z" transform="translate(-3.49 -5.43)"/>
    <path d="M120.24,49c0-2.54-.09-4.59-.17-6.47h3.24l.16,3.4h.08a7.8,7.8,0,0,1,7-3.85c4.79,0,8.39,4,8.39,10.07,0,7.13-4.34,10.65-9,10.65a6.94,6.94,0,0,1-6.1-3.11h-.08V70.45h-3.56Zm3.56,5.28a8.28,8.28,0,0,0,.16,1.48A5.57,5.57,0,0,0,129.37,60c3.81,0,6-3.12,6-7.66,0-4-2.09-7.37-5.9-7.37A5.75,5.75,0,0,0,124,49.4a5.94,5.94,0,0,0-.24,1.47Z" transform="translate(-3.49 -5.43)"/>
    <path d="M155.9,37.77h-8.4v-3h20.44v3H159.5V62.34h-3.6Z" transform="translate(-3.49 -5.43)"/>
    <path d="M179.24,62.34l-.29-2.5h-.12a7.39,7.39,0,0,1-6.06,2.95c-4,0-6.06-2.82-6.06-5.69,0-4.79,4.25-7.41,11.91-7.37v-.41c0-1.64-.45-4.59-4.5-4.59A9.89,9.89,0,0,0,169,46.21l-.82-2.38a12.34,12.34,0,0,1,6.51-1.76c6.06,0,7.54,4.14,7.54,8.11v7.41a28.54,28.54,0,0,0,.32,4.75Zm-.54-10.11c-3.93-.09-8.39.61-8.39,4.46a3.19,3.19,0,0,0,3.4,3.44,4.93,4.93,0,0,0,4.79-3.32,3.8,3.8,0,0,0,.2-1.14Z" transform="translate(-3.49 -5.43)"/>
    <path d="M188,33.27h3.6V62.34H188Z" transform="translate(-3.49 -5.43)"/>
    <path d="M201.22,51.61h.08c.5-.69,1.19-1.55,1.77-2.25l5.81-6.84h4.34l-7.66,8.15,8.73,11.67H209.9l-6.83-9.5-1.85,2v7.45h-3.56V33.27h3.56Z" transform="translate(-3.49 -5.43)"/>
    <path d="M221.57,37a2.23,2.23,0,0,1-4.46,0,2.19,2.19,0,0,1,2.25-2.25A2.14,2.14,0,0,1,221.57,37Zm-4,25.39V42.52h3.6V62.34Z" transform="translate(-3.49 -5.43)"/>
    <path d="M227.14,47.89c0-2,0-3.73-.16-5.37h3.19l.2,3.28h.09A7.27,7.27,0,0,1,237,42.07c2.74,0,7,1.64,7,8.44V62.34h-3.6V50.92c0-3.2-1.19-5.86-4.59-5.86A5.12,5.12,0,0,0,231,48.75a5.24,5.24,0,0,0-.25,1.67V62.34h-3.6Z" transform="translate(-3.49 -5.43)"/>
    <path d="M266.94,42.52c-.08,1.43-.16,3-.16,5.45v11.5c0,4.55-.91,7.33-2.83,9.06a10.51,10.51,0,0,1-7.21,2.37,12.75,12.75,0,0,1-6.59-1.64l.9-2.74a11.18,11.18,0,0,0,5.82,1.55c3.68,0,6.38-1.92,6.38-6.92V58.94h-.08a7.07,7.07,0,0,1-6.3,3.32c-4.92,0-8.44-4.18-8.44-9.66,0-6.72,4.38-10.53,8.93-10.53a6.58,6.58,0,0,1,6.18,3.44h.08l.17-3Zm-3.73,7.82a5.31,5.31,0,0,0-.2-1.64,5.2,5.2,0,0,0-5-3.8c-3.44,0-5.89,2.9-5.89,7.49,0,3.89,2,7.13,5.85,7.13a5.28,5.28,0,0,0,5-3.69,6.38,6.38,0,0,0,.28-1.92Z" transform="translate(-3.49 -5.43)"/>
  </g>
</svg>
