<?xml version="1.0" encoding="utf-8"?>
<?xml-stylesheet type="text/css" href="../style.css"?>
<svg id="buttonOne" xmlns="http://www.w3.org/2000/svg" viewBox="0 0 210.59 88.09">
  <rect id="baseOne" class="cls-One" x="0.5" y="0.5" width="209.59" height="87.09" rx="12"/>
  <g id="happyOne">
    <g>
      <path d="M53.09,32.35V45H67.67V32.35h3.94V62.49H67.67V48.36H53.09V62.49H49.2V32.35Z" transform="translate(-3.77 -5.45)"/>
      <path d="M90.21,62.49l-.31-2.72h-.14A8.07,8.07,0,0,1,83.14,63c-4.38,0-6.61-3.09-6.61-6.22,0-5.23,4.65-8.1,13-8.05v-.45c0-1.79-.49-5-4.92-5A10.87,10.87,0,0,0,79,44.87l-.89-2.59a13.45,13.45,0,0,1,7.11-1.92c6.62,0,8.23,4.51,8.23,8.85v8.1a30.22,30.22,0,0,0,.36,5.18Zm-.58-11c-4.29-.09-9.17.67-9.17,4.87a3.48,3.48,0,0,0,3.71,3.76,5.4,5.4,0,0,0,5.24-3.62,4.28,4.28,0,0,0,.22-1.26Z" transform="translate(-3.77 -5.45)"/>
      <path d="M99.78,47.91c0-2.77-.09-5-.18-7.06h3.53l.18,3.71h.09a8.5,8.5,0,0,1,7.69-4.2c5.24,0,9.17,4.42,9.17,11,0,7.78-4.74,11.63-9.84,11.63a7.61,7.61,0,0,1-6.66-3.4h-.09V71.35H99.78Zm3.89,5.77a8.8,8.8,0,0,0,.18,1.61,6.08,6.08,0,0,0,5.9,4.61c4.16,0,6.58-3.4,6.58-8.36,0-4.34-2.28-8-6.44-8a6.27,6.27,0,0,0-6,4.87,6.61,6.61,0,0,0-.27,1.61Z" transform="translate(-3.77 -5.45)"/>
      <path d="M125.22,47.91c0-2.77-.08-5-.17-7.06h3.53l.18,3.71h.09a8.5,8.5,0,0,1,7.69-4.2c5.23,0,9.17,4.42,9.17,11,0,7.78-4.74,11.63-9.84,11.63a7.59,7.59,0,0,1-6.66-3.4h-.09V71.35h-3.9Zm3.9,5.77a9.82,9.82,0,0,0,.17,1.61,6.08,6.08,0,0,0,5.91,4.61c4.16,0,6.57-3.4,6.57-8.36,0-4.34-2.28-8-6.44-8a6.28,6.28,0,0,0-6,4.87,6.61,6.61,0,0,0-.26,1.61Z" transform="translate(-3.77 -5.45)"/>
      <path d="M151.79,40.85l4.74,12.79c.49,1.43,1,3.13,1.39,4.43H158c.41-1.3.86-3,1.39-4.52l4.3-12.7h4.15l-5.9,15.43c-2.82,7.42-4.74,11.22-7.42,13.55a10.73,10.73,0,0,1-4.83,2.55l-1-3.31a10.63,10.63,0,0,0,3.45-1.92,12.18,12.18,0,0,0,3.31-4.39,3,3,0,0,0,.31-.94,3.5,3.5,0,0,0-.27-1l-8-19.94Z" transform="translate(-3.77 -5.45)"/>
    </g>
  </g>
  <g id="sadOne">
    <g>
      <path d="M77.67,57.75a13.69,13.69,0,0,0,7,2c4,0,6.31-2.1,6.31-5.14,0-2.82-1.61-4.43-5.68-6-4.92-1.74-8-4.29-8-8.54,0-4.69,3.89-8.18,9.75-8.18a13.71,13.71,0,0,1,6.66,1.47l-1.07,3.18a12,12,0,0,0-5.73-1.43c-4.11,0-5.68,2.46-5.68,4.52,0,2.81,1.84,4.2,6,5.81,5.09,2,7.69,4.43,7.69,8.85,0,4.66-3.45,8.68-10.56,8.68A15.63,15.63,0,0,1,76.68,61Z" transform="translate(-3.77 -5.45)"/>
      <path d="M112.23,62.49l-.31-2.72h-.13A8.1,8.1,0,0,1,105.17,63c-4.39,0-6.62-3.09-6.62-6.22,0-5.23,4.65-8.1,13-8.05v-.45c0-1.79-.49-5-4.92-5A10.81,10.81,0,0,0,101,44.87l-.9-2.59a13.49,13.49,0,0,1,7.12-1.92c6.61,0,8.22,4.51,8.22,8.85v8.1a30.22,30.22,0,0,0,.36,5.18Zm-.58-11c-4.29-.09-9.17.67-9.17,4.87a3.49,3.49,0,0,0,3.72,3.76,5.4,5.4,0,0,0,5.23-3.62,4.28,4.28,0,0,0,.22-1.26Z" transform="translate(-3.77 -5.45)"/>
      <path d="M140.5,30.74V56.9c0,1.93,0,4.12.18,5.59h-3.54L137,58.74h-.08A8,8,0,0,1,129.5,63c-5.24,0-9.26-4.43-9.26-11,0-7.2,4.43-11.62,9.7-11.62,3.31,0,5.55,1.56,6.53,3.31h.09V30.74Zm-3.94,18.92a6.75,6.75,0,0,0-.18-1.66,5.79,5.79,0,0,0-5.68-4.56c-4.07,0-6.48,3.58-6.48,8.36,0,4.39,2.15,8,6.39,8a5.91,5.91,0,0,0,5.77-4.7,6.49,6.49,0,0,0,.18-1.69Z" transform="translate(-3.77 -5.45)"/>
    </g>
  </g>
  <g id="angryOne">
    <g>
      <path d="M62.08,53,59,62.49h-4L65.16,32.35h4.7L80.15,62.49H76L72.77,53ZM72,50,69,41.3c-.67-2-1.12-3.76-1.57-5.51h-.09c-.44,1.79-.94,3.63-1.52,5.46L62.88,50Z" transform="translate(-3.77 -5.45)"/>
      <path d="M84.3,46.71c0-2.24,0-4.07-.18-5.86h3.49l.23,3.58h.08a8,8,0,0,1,7.16-4.07c3,0,7.65,1.79,7.65,9.21V62.49H98.79V50c0-3.49-1.29-6.4-5-6.4a5.78,5.78,0,0,0-5.54,5.86v13H84.3Z" transform="translate(-3.77 -5.45)"/>
      <path d="M127.77,40.85c-.09,1.56-.18,3.31-.18,5.95V59.36c0,5-1,8-3.08,9.89s-5.15,2.59-7.87,2.59a14,14,0,0,1-7.2-1.79l1-3a12.26,12.26,0,0,0,6.35,1.69c4,0,7-2.1,7-7.55V58.78h-.09a7.74,7.74,0,0,1-6.89,3.62c-5.37,0-9.21-4.56-9.21-10.55,0-7.33,4.78-11.49,9.75-11.49a7.2,7.2,0,0,1,6.75,3.75h.09l.18-3.26Zm-4.07,8.54a5.6,5.6,0,0,0-.22-1.79,5.68,5.68,0,0,0-5.5-4.16c-3.76,0-6.44,3.18-6.44,8.19,0,4.25,2.14,7.78,6.39,7.78a5.75,5.75,0,0,0,5.46-4,6.94,6.94,0,0,0,.31-2.1Z" transform="translate(-3.77 -5.45)"/>
      <path d="M133.85,47.6c0-2.55,0-4.74-.18-6.75h3.45l.13,4.25h.18a6.48,6.48,0,0,1,6-4.74,4.25,4.25,0,0,1,1.12.13V44.2a5.85,5.85,0,0,0-1.34-.13c-2.77,0-4.74,2.1-5.28,5a11,11,0,0,0-.18,1.84V62.49h-3.89Z" transform="translate(-3.77 -5.45)"/>
      <path d="M151,40.85l4.74,12.79c.5,1.43,1,3.13,1.39,4.43h.09c.4-1.3.85-3,1.39-4.52l4.29-12.7h4.16l-5.9,15.43c-2.82,7.42-4.74,11.22-7.43,13.55a10.63,10.63,0,0,1-4.83,2.55l-1-3.31a10.59,10.59,0,0,0,3.44-1.92,12,12,0,0,0,3.31-4.39,2.72,2.72,0,0,0,.31-.94,3.39,3.39,0,0,0-.26-1l-8-19.94Z" transform="translate(-3.77 -5.45)"/>
    </g>
  </g>
  <g id="jokeyOne">
    <path d="M72,32.13h3.9V52.3c0,8-3.94,10.47-9.13,10.47a12.44,12.44,0,0,1-4.16-.72l.58-3.17a9.39,9.39,0,0,0,3.27.58C69.91,59.46,72,57.89,72,52Z" transform="translate(-3.77 -5.45)"/>
    <path d="M101.8,51.28c0,8-5.55,11.49-10.78,11.49-5.86,0-10.38-4.29-10.38-11.14,0-7.24,4.74-11.49,10.74-11.49C97.59,40.14,101.8,44.66,101.8,51.28Zm-17.18.22c0,4.74,2.73,8.32,6.58,8.32s6.57-3.54,6.57-8.41c0-3.67-1.83-8.32-6.48-8.32S84.62,47.38,84.62,51.5Z" transform="translate(-3.77 -5.45)"/>
    <path d="M110.65,50.56h.09c.54-.76,1.3-1.7,1.93-2.46L119,40.63h4.74l-8.36,8.9,9.52,12.75h-4.78L112.67,51.9l-2,2.24v8.14h-3.89V30.52h3.89Z" transform="translate(-3.77 -5.45)"/>
    <path d="M129.93,52.17c.09,5.32,3.49,7.51,7.43,7.51a14.37,14.37,0,0,0,6-1.11l.67,2.81a17.5,17.5,0,0,1-7.2,1.34c-6.66,0-10.64-4.38-10.64-10.91S130,40.14,136.33,40.14c7.06,0,8.94,6.22,8.94,10.2a16,16,0,0,1-.13,1.83Zm11.54-2.82c.05-2.5-1-6.39-5.45-6.39-4,0-5.73,3.66-6,6.39Z" transform="translate(-3.77 -5.45)"/>
    <path d="M151.58,40.63l4.74,12.79c.49,1.43,1,3.13,1.39,4.43h.09c.4-1.3.85-3,1.38-4.52l4.3-12.7h4.16l-5.91,15.43c-2.81,7.43-4.74,11.23-7.42,13.55a10.68,10.68,0,0,1-4.83,2.55l-1-3.31a10.41,10.41,0,0,0,3.44-1.92,12,12,0,0,0,3.31-4.38,2.86,2.86,0,0,0,.31-.94,3.36,3.36,0,0,0-.27-1l-8-19.95Z" transform="translate(-3.77 -5.45)"/>
  </g>
</svg>
