<?xml version="1.0" encoding="utf-8"?>
<?xml-stylesheet type="text/css" href="../style.css"?>
<svg id="tamagotchi" xmlns="http://www.w3.org/2000/svg" viewBox="0 0 717.69 863.31">
  <path id="head" class="cls-1" d="M166,122.46C191.75,165.13,317.78,376.51,289,414.22,235.74,460.43,203.83,521,209.61,606.74c12.84,154.5,249.58,301.31,283.82,293.75,14.22-3.15,188.44-106.38,240.15-172.68,34.31-45.57,58.69-106.27,75.43-178.63-1-40.56-10.12-82.32-25.81-125,83.14-106,105.71-207,73.44-303.66C732.39,153.88,657.24,206,632.36,277.27l-166.72-7.94-23.81-41.68C379.36,134.1,289.12,95.62,166,122.46Z" transform="translate(-158.05 -42.45)"/>
  <g id="eyes">
    <path id="rightEyeTwo" class="cls-2" d="M528.91,700.39l134.22,16.94c2.91-78.59-3.35-176.19-20.84-200.89-13-25.86-26.07-36.28-51.61-39.7-29.15.12-44.88,25.95-56.56,59.54C518.48,594.84,526.3,644.36,528.91,700.39Z" transform="translate(-158.05 -42.45)"/>
    <ellipse id="rightEye" class="cls-3" cx="429.85" cy="573.83" rx="45.15" ry="63.02"/>
    <path id="leftEyeTwo" class="cls-2" d="M463.66,703c9-74,5.29-138.3-15.88-189.54-11.87-20.27-29-30-49.62-32.75-20.77,7.46-37,30.83-51.6,59.54-16.78,47-21.94,106.89-21.83,172.68Z" transform="translate(-158.05 -42.45)"/>
    <ellipse id="leftEye" class="cls-3" cx="243.14" cy="574.59" rx="45.15" ry="63.02"/>
    <path id="leftEyeBrow" class="cls-4" d="M351.52,453.92c14.36-37.86,30.34-59.62,51.6-28.78" transform="translate(-158.05 -42.45)"/>
    <path id="rightEyeBrow" class="cls-4" d="M607.55,442c33.77-34.58,50.28-8.66,61.53,35.72" transform="translate(-158.05 -42.45)"/>
  </g>
  <g id="mouse_and_nose" data-name="mouse and nose">
    <path id="rightMustageTwo" class="cls-4" d="M651.22,758.58c35.68,5.62,70.61,28.94,105.19,60.53" transform="translate(-158.05 -42.45)"/>
    <path id="rightMustageOne" class="cls-4" d="M642.29,787.35c34.94,16.37,62,34.08,84.35,52.6" transform="translate(-158.05 -42.45)"/>
    <polygon id="nose" class="cls-5" points="352.25 692.3 317.52 689.33 330.42 728.03 352.25 692.3"/>
    <path id="leftMustageTwo" class="cls-4" d="M353.5,754.61c-49.95,24.52-95.14,51-135.95,79.39" transform="translate(-158.05 -42.45)"/>
    <path id="leftMustageOne" class="cls-4" d="M355.49,784.38c-33.51,21.09-61.73,48.07-83.36,82.36" transform="translate(-158.05 -42.45)"/>
    <path id="mouse" class="cls-2" d="M544.38,794.46c2.87,1.09-.39,6.82-7,11.3-17.81,12.16-19.47,19.42-31.52,23.66-13.53,4.75-.66,3.26-26.07,4.88-8.14.66-29.94-4.21-45.57-25.45,0,0-16.55-8.62-11.09-14.39,4.15-4.37,13,12.59,24.56,12.65,16.85,2,30.16-1.45,35.66-12.46s.61-27.5,5.82-26.2-2.61,19.49,3.86,26.58,17.11,11.16,17.11,11.16C541.63,809.54,538.08,792.07,544.38,794.46Z" transform="translate(-158.05 -42.45)"/>
  </g>
  <g id="hair_and_ears" data-name="hair and ears">
    <path id="hair" class="cls-6" d="M678,48c-27.24,25.26-48.14,50.24-50.61,74.43,0,0,57.56-17.86,42.67-3s-56.6,56.17-58.55,93.29c55.76,53,106.68,120.23,120.08,298.7-49.63-80.32-94.91-146.2-125-161.75-11.64,26.17-15.92,59.31-10.92,101.22-16.87-18.86-47.85-102.87-61.52-114.12,0,0-17.87-20.84-20.84-17.87s6.94,100.23,6.94,100.23c1.68,33.51-1.17,62.75-8.93,87.33-18.85-15.88-46.38-143.87-61.53-146.87-13.54,40.19-14.64,81.08,4,123.05C426.39,446,402.84,400.3,394.19,319c4.48-61.4,24.53-106.25,63.51-131,22.7-4.2,43.93,15.55,64.51,45.65,4.41-4.64,3.82-12.41-1-22.83-7-5.55-9.66-18.23-4-44.65C582.3,62.63,632.25,43.62,678,48Z" transform="translate(-158.05 -42.45)"/>
    <path id="leftEar" class="cls-4" d="M174.88,119.52c102.26,44.86,161.63,96.22,166.72,155.81" transform="translate(-158.05 -42.45)"/>
    <path id="rightEar" class="cls-4" d="M853.66,120.5c-62.89,58.34-102.58,113.43-101.22,162.75" transform="translate(-158.05 -42.45)"/>
  </g>
      <g>
      <line id="leftOne" class="cls-4" x1="188.87" y1="480.39" x2="294.43" y2="615.92"/>
      <line id="leftTwo" class="cls-4" x1="285.31" y1="480.39" x2="196.69" y2="626.35"/>
    </g>
    <g>
      <line id="rightOne" class="cls-4" x1="424.74" y1="484.3" x2="495.12" y2="619.83"/>
      <line id="rightTwo" class="cls-4" x1="514.66" y1="489.52" x2="397.38" y2="622.44"/>
    </g>
</svg>
